<svg width="180" height="28" viewBox="0 0 180 28" fill="none" xmlns="http://www.w3.org/2000/svg">
<g clip-path="url(#clip0_590_1645)">
<path d="M22.0933 4.82024L3.11993 0.0756699C1.53408 -0.320137 0 0.886716 0 2.53131V25.4697C0 27.0652 1.44879 28.2618 3.00317 27.9509L21.9766 24.1554C23.1533 23.9202 24 22.8811 24 21.6742V7.27485C24 6.113 23.2132 5.10047 22.0923 4.82024H22.0933Z" fill="#221E1F"/>
<path d="M0 25.4687V15.1378L5.68755 9.38788L18.1145 21.4288L13.7762 25.7939L3.00317 27.9489C1.44879 28.2598 0 27.0632 0 25.4677L0 25.4687Z" fill="#0D3076"/>
<path d="M7.05619 8.78442L16.9998 6.2981C17.8303 6.09048 18.6343 6.72254 18.6343 7.58473V19.6062C18.6343 20.4418 17.8749 21.0698 17.0607 20.9061L7.11711 18.9169C6.50084 18.7931 6.05615 18.249 6.05615 17.6169V10.071C6.05615 9.46149 6.46835 8.9317 7.05619 8.78442Z" fill="white"/>
</g>
<path d="M166.816 8.552H179.456V21.672H177.36V10.504H168.816V21.704H166.816V8.552ZM167.776 18.424H178.672V20.392H167.776V18.424Z" fill="#221E1F"/>
<path d="M149.512 14.84C150.408 14.808 151.437 14.7707 152.6 14.728C153.763 14.6853 154.989 14.6373 156.28 14.584C157.571 14.5307 158.84 14.4773 160.088 14.424L160.024 16.04C158.819 16.104 157.592 16.1627 156.344 16.216C155.107 16.2693 153.923 16.3173 152.792 16.36C151.672 16.4027 150.664 16.4453 149.768 16.488L149.512 14.84ZM152.248 17.752H154.12V19.848C154.12 20.072 154.168 20.2107 154.264 20.264C154.371 20.3173 154.595 20.344 154.936 20.344C155.011 20.344 155.133 20.344 155.304 20.344C155.485 20.344 155.683 20.344 155.896 20.344C156.109 20.344 156.312 20.344 156.504 20.344C156.696 20.344 156.84 20.344 156.936 20.344C157.117 20.344 157.256 20.312 157.352 20.248C157.459 20.1733 157.533 20.0293 157.576 19.816C157.619 19.592 157.651 19.2613 157.672 18.824C157.8 18.9093 157.96 18.9947 158.152 19.08C158.355 19.1653 158.557 19.2453 158.76 19.32C158.973 19.384 159.16 19.432 159.32 19.464C159.256 20.1253 159.144 20.632 158.984 20.984C158.835 21.3467 158.611 21.5973 158.312 21.736C158.013 21.8747 157.613 21.944 157.112 21.944C157.037 21.944 156.915 21.944 156.744 21.944C156.584 21.944 156.403 21.944 156.2 21.944C155.997 21.944 155.795 21.944 155.592 21.944C155.4 21.944 155.219 21.944 155.048 21.944C154.888 21.944 154.771 21.944 154.696 21.944C154.035 21.944 153.528 21.88 153.176 21.752C152.824 21.624 152.579 21.4053 152.44 21.096C152.312 20.7973 152.248 20.3867 152.248 19.864V17.752ZM153.592 12.152L155.592 12.648C155.24 13.2133 154.861 13.7787 154.456 14.344C154.061 14.8987 153.699 15.3733 153.368 15.768L151.8 15.288C152.013 15 152.232 14.6747 152.456 14.312C152.68 13.9493 152.893 13.5813 153.096 13.208C153.299 12.824 153.464 12.472 153.592 12.152ZM158.712 18.152L160.312 17.352C160.664 17.6933 161.016 18.072 161.368 18.488C161.72 18.904 162.04 19.32 162.328 19.736C162.627 20.152 162.856 20.536 163.016 20.888L161.272 21.784C161.133 21.4427 160.925 21.0587 160.648 20.632C160.381 20.216 160.077 19.7893 159.736 19.352C159.395 18.9147 159.053 18.5147 158.712 18.152ZM150.104 17.432L151.752 18.024C151.517 18.7493 151.213 19.4533 150.84 20.136C150.467 20.808 149.965 21.384 149.336 21.864L147.816 20.696C148.381 20.312 148.851 19.832 149.224 19.256C149.608 18.6693 149.901 18.0613 150.104 17.432ZM153.576 17.048L154.92 16.12C155.229 16.312 155.544 16.5307 155.864 16.776C156.195 17.0213 156.504 17.272 156.792 17.528C157.091 17.784 157.331 18.024 157.512 18.248L156.088 19.288C155.917 19.064 155.693 18.8187 155.416 18.552C155.139 18.2853 154.84 18.024 154.52 17.768C154.2 17.5013 153.885 17.2613 153.576 17.048ZM157.08 13.72L158.6 12.936C159.016 13.2453 159.443 13.5973 159.88 13.992C160.317 14.3867 160.733 14.7813 161.128 15.176C161.533 15.56 161.853 15.9173 162.088 16.248L160.44 17.128C160.227 16.8187 159.933 16.4613 159.56 16.056C159.187 15.6507 158.781 15.2453 158.344 14.84C157.917 14.424 157.496 14.0507 157.08 13.72ZM154.504 7H156.488V8.952H154.504V7ZM152.808 9.224H154.792C154.685 9.78933 154.531 10.3013 154.328 10.76C154.125 11.2187 153.832 11.6293 153.448 11.992C153.064 12.344 152.547 12.6533 151.896 12.92C151.245 13.1867 150.429 13.4053 149.448 13.576C149.373 13.3627 149.24 13.112 149.048 12.824C148.867 12.5253 148.691 12.296 148.52 12.136C149.363 12.008 150.045 11.8587 150.568 11.688C151.091 11.5173 151.501 11.3147 151.8 11.08C152.109 10.8347 152.333 10.5627 152.472 10.264C152.621 9.95467 152.733 9.608 152.808 9.224ZM155.88 9.256H157.784V10.856C157.784 11.048 157.811 11.1707 157.864 11.224C157.917 11.2667 158.045 11.288 158.248 11.288C158.28 11.288 158.344 11.288 158.44 11.288C158.547 11.288 158.653 11.288 158.76 11.288C158.877 11.288 158.989 11.288 159.096 11.288C159.203 11.288 159.283 11.288 159.336 11.288C159.443 11.288 159.523 11.2667 159.576 11.224C159.64 11.1707 159.683 11.0693 159.704 10.92C159.736 10.7707 159.763 10.5467 159.784 10.248C159.965 10.3653 160.211 10.4827 160.52 10.6C160.84 10.7173 161.123 10.7973 161.368 10.84C161.315 11.3307 161.219 11.72 161.08 12.008C160.952 12.2853 160.76 12.4827 160.504 12.6C160.259 12.7067 159.939 12.76 159.544 12.76C159.459 12.76 159.341 12.76 159.192 12.76C159.043 12.76 158.888 12.76 158.728 12.76C158.568 12.76 158.413 12.76 158.264 12.76C158.125 12.76 158.013 12.76 157.928 12.76C157.373 12.76 156.947 12.7013 156.648 12.584C156.36 12.4667 156.157 12.2747 156.04 12.008C155.933 11.7307 155.88 11.352 155.88 10.872V9.256ZM148.456 8.184H162.536V11.016H160.616V9.72H150.296V11.176H148.456V8.184Z" fill="#221E1F"/>
<path d="M138.248 9.62397C138.141 10.4346 138.003 11.2986 137.832 12.216C137.661 13.1333 137.432 14.0613 137.144 15C136.835 16.0773 136.472 17.0053 136.056 17.784C135.64 18.5626 135.181 19.1653 134.68 19.592C134.189 20.008 133.651 20.216 133.064 20.216C132.477 20.216 131.933 20.0186 131.432 19.624C130.941 19.2186 130.547 18.664 130.248 17.96C129.96 17.256 129.816 16.456 129.816 15.56C129.816 14.632 130.003 13.7573 130.376 12.936C130.749 12.1146 131.267 11.3893 131.928 10.76C132.6 10.12 133.379 9.61864 134.264 9.25598C135.16 8.89331 136.125 8.71198 137.16 8.71198C138.152 8.71198 139.043 8.87198 139.832 9.19198C140.632 9.51198 141.315 9.95464 141.88 10.52C142.445 11.0853 142.877 11.7466 143.176 12.504C143.475 13.2613 143.624 14.0773 143.624 14.952C143.624 16.072 143.395 17.0746 142.936 17.96C142.477 18.8453 141.795 19.576 140.888 20.152C139.992 20.728 138.872 21.1226 137.528 21.336L136.328 19.432C136.637 19.4 136.909 19.3626 137.144 19.32C137.379 19.2773 137.603 19.2293 137.816 19.176C138.328 19.048 138.803 18.8666 139.24 18.632C139.688 18.3866 140.077 18.088 140.408 17.736C140.739 17.3733 140.995 16.952 141.176 16.472C141.368 15.992 141.464 15.464 141.464 14.888C141.464 14.2586 141.368 13.6826 141.176 13.16C140.984 12.6373 140.701 12.184 140.328 11.8C139.955 11.4053 139.501 11.1066 138.968 10.904C138.435 10.6906 137.821 10.584 137.128 10.584C136.275 10.584 135.523 10.7386 134.872 11.048C134.221 11.3466 133.672 11.736 133.224 12.216C132.776 12.696 132.435 13.2133 132.2 13.768C131.976 14.3226 131.864 14.8506 131.864 15.352C131.864 15.8853 131.928 16.3333 132.056 16.696C132.184 17.048 132.339 17.3146 132.52 17.496C132.712 17.6666 132.915 17.752 133.128 17.752C133.352 17.752 133.571 17.64 133.784 17.416C134.008 17.1813 134.227 16.8293 134.44 16.36C134.653 15.8906 134.867 15.2986 135.08 14.584C135.325 13.816 135.533 12.9946 135.704 12.12C135.875 11.2453 135.997 10.392 136.072 9.55998L138.248 9.62397Z" fill="#221E1F"/>
<path d="M116.976 19.048C116.976 18.8453 116.976 18.5146 116.976 18.056C116.976 17.5866 116.976 17.048 116.976 16.44C116.976 15.8213 116.976 15.176 116.976 14.504C116.976 13.832 116.976 13.1866 116.976 12.568C116.976 11.9386 116.976 11.384 116.976 10.904C116.976 10.424 116.976 10.072 116.976 9.84798C116.976 9.57064 116.96 9.25065 116.928 8.88798C116.907 8.52531 116.869 8.20531 116.816 7.92798H119.312C119.28 8.20531 119.248 8.51464 119.216 8.85598C119.184 9.18664 119.168 9.51731 119.168 9.84798C119.168 10.1466 119.168 10.552 119.168 11.064C119.168 11.576 119.168 12.1466 119.168 12.776C119.168 13.3946 119.168 14.0293 119.168 14.68C119.168 15.32 119.168 15.9386 119.168 16.536C119.168 17.1333 119.168 17.656 119.168 18.104C119.168 18.5413 119.168 18.856 119.168 19.048C119.168 19.1973 119.173 19.4106 119.184 19.688C119.195 19.9546 119.216 20.232 119.248 20.52C119.28 20.808 119.301 21.064 119.312 21.288H116.816C116.859 20.968 116.896 20.5946 116.928 20.168C116.96 19.7413 116.976 19.368 116.976 19.048ZM118.688 12.072C119.221 12.2106 119.819 12.392 120.48 12.616C121.141 12.8293 121.808 13.0586 122.48 13.304C123.152 13.5493 123.781 13.7946 124.368 14.04C124.965 14.2746 125.461 14.4933 125.856 14.696L124.944 16.904C124.496 16.6693 124 16.4346 123.456 16.2C122.912 15.9546 122.357 15.72 121.792 15.496C121.237 15.272 120.688 15.064 120.144 14.872C119.611 14.68 119.125 14.5093 118.688 14.36V12.072Z" fill="#221E1F"/>
<path d="M101.816 8.42401C102.093 8.61601 102.419 8.85068 102.792 9.12801C103.165 9.40534 103.549 9.70934 103.944 10.04C104.349 10.36 104.728 10.6747 105.08 10.984C105.432 11.2933 105.72 11.5707 105.944 11.816L104.312 13.48C104.109 13.256 103.843 12.9893 103.512 12.68C103.181 12.3707 102.824 12.0507 102.44 11.72C102.056 11.3893 101.677 11.0747 101.304 10.776C100.931 10.4773 100.6 10.2267 100.312 10.024L101.816 8.42401ZM99.816 19.08C100.648 18.9627 101.432 18.7973 102.168 18.584C102.904 18.3707 103.587 18.1253 104.216 17.848C104.845 17.5707 105.421 17.2827 105.944 16.984C106.851 16.44 107.683 15.8213 108.44 15.128C109.197 14.4347 109.859 13.7147 110.424 12.968C110.989 12.2107 111.437 11.4747 111.768 10.76L113.016 13.016C112.611 13.7307 112.109 14.4453 111.512 15.16C110.925 15.8747 110.259 16.5573 109.512 17.208C108.765 17.848 107.96 18.424 107.096 18.936C106.552 19.2667 105.965 19.5813 105.336 19.88C104.707 20.168 104.04 20.424 103.336 20.648C102.643 20.8827 101.917 21.064 101.16 21.192L99.816 19.08Z" fill="#221E1F"/>
<path d="M85.632 11.912C85.8134 11.944 86.0267 11.9653 86.272 11.976C86.5174 11.9867 86.7254 11.992 86.896 11.992H94.224C94.416 11.992 94.624 11.9867 94.848 11.976C95.072 11.9653 95.28 11.944 95.472 11.912V13.928C95.2694 13.9067 95.056 13.8907 94.832 13.88C94.608 13.8693 94.4054 13.864 94.224 13.864H86.896C86.7254 13.864 86.5174 13.8693 86.272 13.88C86.0267 13.8907 85.8134 13.9067 85.632 13.928V11.912ZM89.392 20.104V13.016H91.488V20.104H89.392ZM84.816 18.92C85.0187 18.9413 85.2374 18.9627 85.472 18.984C85.7067 19.0053 85.9254 19.016 86.128 19.016H94.976C95.2 19.016 95.4134 19.0053 95.616 18.984C95.8294 18.952 96.0214 18.9307 96.192 18.92V21.016C96.0214 20.984 95.808 20.9627 95.552 20.952C95.3067 20.9413 95.1147 20.936 94.976 20.936H86.128C85.936 20.936 85.7227 20.9413 85.488 20.952C85.2534 20.9627 85.0294 20.984 84.816 21.016V18.92Z" fill="#221E1F"/>
<path d="M49.816 13.176C50.008 13.1866 50.2534 13.2026 50.552 13.224C50.8507 13.2346 51.16 13.2453 51.48 13.256C51.8107 13.2666 52.1147 13.272 52.392 13.272C52.6587 13.272 52.9894 13.272 53.384 13.272C53.7787 13.272 54.2054 13.272 54.664 13.272C55.1334 13.272 55.6134 13.272 56.104 13.272C56.6054 13.272 57.1014 13.272 57.592 13.272C58.0827 13.272 58.5467 13.272 58.984 13.272C59.4214 13.272 59.8107 13.272 60.152 13.272C60.504 13.272 60.7814 13.272 60.984 13.272C61.3574 13.272 61.7094 13.2613 62.04 13.24C62.3707 13.208 62.6427 13.1866 62.856 13.176V15.688C62.6747 15.6773 62.4027 15.6613 62.04 15.64C61.6774 15.6186 61.3254 15.608 60.984 15.608C60.7814 15.608 60.504 15.608 60.152 15.608C59.8 15.608 59.4054 15.608 58.968 15.608C58.5307 15.608 58.0667 15.608 57.576 15.608C57.096 15.608 56.6054 15.608 56.104 15.608C55.6027 15.608 55.1174 15.608 54.648 15.608C54.1894 15.608 53.7627 15.608 53.368 15.608C52.984 15.608 52.6587 15.608 52.392 15.608C51.9334 15.608 51.464 15.6186 50.984 15.64C50.504 15.6506 50.1147 15.6666 49.816 15.688V13.176Z" fill="#221E1F"/>
<path d="M33.04 9.41595C33.2533 9.43729 33.504 9.45862 33.792 9.47995C34.08 9.50129 34.336 9.51195 34.56 9.51195H43.264C43.5093 9.51195 43.7653 9.50129 44.032 9.47995C44.2987 9.45862 44.544 9.43729 44.768 9.41595V11.608C44.5333 11.5866 44.2827 11.5706 44.016 11.56C43.7493 11.5493 43.4987 11.544 43.264 11.544H34.56C34.3467 11.544 34.0907 11.5493 33.792 11.56C33.4933 11.5706 33.2427 11.5866 33.04 11.608V9.41595ZM37.648 19.256V10.648H39.888V19.256H37.648ZM32 17.944C32.256 17.9866 32.5227 18.0186 32.8 18.04C33.0773 18.0613 33.3387 18.072 33.584 18.072H44.128C44.416 18.072 44.688 18.0613 44.944 18.04C45.2 18.008 45.4293 17.976 45.632 17.944V20.264C45.3973 20.232 45.136 20.2106 44.848 20.2C44.56 20.1893 44.32 20.184 44.128 20.184H33.584C33.3493 20.184 33.0933 20.1893 32.816 20.2C32.5387 20.2106 32.2667 20.232 32 20.264V17.944Z" fill="#221E1F"/>
<path d="M80.3844 13.3281C79.6377 14.4375 78.7145 15.4825 77.6158 16.4639C76.5279 17.4452 75.3282 18.3149 74.0162 19.0723C73.4723 19.3815 72.8748 19.6689 72.2242 19.9355C71.5842 20.2022 70.9493 20.432 70.3199 20.624C69.7015 20.8266 69.1523 20.9703 68.6725 21.0557L67.4723 18.9443C68.0802 18.8377 68.6886 18.7089 69.2965 18.5596C69.915 18.3996 70.5285 18.2024 71.1364 17.9678C71.7549 17.7331 72.3525 17.4616 72.9283 17.1523C73.8349 16.6404 74.6771 16.0638 75.4557 15.4238C76.245 14.7838 76.9493 14.1013 77.568 13.376C78.1972 12.6507 78.7253 11.9096 79.152 11.1523L80.3844 13.3281ZM67.984 11.2324C68.2506 11.3817 68.5499 11.5571 68.8805 11.7598C69.2217 11.9517 69.5627 12.1549 69.9039 12.3682C70.2452 12.5814 70.5653 12.7836 70.8639 12.9756C71.1732 13.1676 71.4298 13.3389 71.6324 13.4883L70.4645 15.2803C70.2298 15.1203 69.9624 14.944 69.6637 14.752C69.3651 14.5493 69.045 14.3412 68.7037 14.1279C68.3733 13.9041 68.043 13.6958 67.7125 13.5039C67.3925 13.3119 67.0934 13.1465 66.816 13.0078L67.984 11.2324ZM71.3278 8.1123C71.6584 8.31494 71.9943 8.52304 72.3356 8.73633C72.6876 8.94966 73.0135 9.15768 73.3121 9.36035C73.6214 9.55229 73.883 9.72277 74.0963 9.87207L72.8961 11.6484C72.6828 11.4884 72.4213 11.3062 72.1119 11.1035C71.8027 10.9009 71.4825 10.6937 71.152 10.4805C70.8213 10.2671 70.4905 10.0641 70.1598 9.87207C69.8398 9.66944 69.5465 9.49306 69.2799 9.34375L70.4479 7.58398C70.7039 7.73331 70.9971 7.90965 71.3278 8.1123ZM77.816 10.584H75.816V7.58398H77.816V10.584ZM80.816 10.584H78.816V7.58398H80.816V10.584Z" fill="#221E1F"/>
<defs>
<clipPath id="clip0_590_1645">
<rect width="24" height="28" fill="white"/>
</clipPath>
</defs>
</svg>
