<svg width="180" height="28" viewBox="0 0 180 28" fill="none" xmlns="http://www.w3.org/2000/svg">
<g clip-path="url(#clip0_712_3618)">
<path fill-rule="evenodd" clip-rule="evenodd" d="M0 2.53169C0 0.887095 1.53426 -0.319707 3.12012 0.0760994L22.0934 4.82024H22.0922C23.213 5.10048 24 6.11338 24 7.27523V21.6747C23.9999 22.8814 23.1533 23.9206 21.9768 24.1558L3.00293 27.9513C1.44873 28.262 0.000151415 27.0654 0 25.4701V2.53169ZM18.6346 7.58493C18.6346 6.72275 17.8303 6.09098 16.9998 6.29859L7.05586 8.78449C6.46815 8.93185 6.05625 9.46195 6.05625 10.0714V17.6171C6.05625 18.2491 6.50065 18.7933 7.1168 18.9171L17.0607 20.9061C17.8749 21.0697 18.6344 20.4421 18.6346 19.6067V7.58493Z" fill="#221E1F"/>
<path d="M6.08965 9.77717C6.06825 9.87204 6.05627 9.97024 6.05625 10.0708V17.6171C6.05632 18.249 6.50068 18.7933 7.1168 18.9171L17.0607 20.9061C17.2367 20.9414 17.4097 20.9376 17.5734 20.9049L18.1143 21.4286L13.776 25.7941L3.00293 27.9489C1.49731 28.2499 0.0907048 27.1366 0.00410156 25.6163L0 25.4689V15.1377L5.6877 9.38782L6.08965 9.77717Z" fill="#4A73C2"/>
<path d="M7.05619 8.78442L16.9998 6.2981C17.8303 6.09048 18.6343 6.72254 18.6343 7.58473V19.6062C18.6343 20.4418 17.8749 21.0698 17.0607 20.9061L7.11711 18.9169C6.50084 18.7931 6.05615 18.249 6.05615 17.6169V10.071C6.05615 9.46149 6.46835 8.9317 7.05619 8.78442Z" fill="#F0F0EB"/>
</g>
<path d="M167.044 8.552H179.684V21.672H177.588V10.504H169.044V21.704H167.044V8.552ZM168.004 18.424H178.9V20.392H168.004V18.424Z" fill="white"/>
<path d="M149.74 14.84C150.636 14.808 151.665 14.7707 152.828 14.728C153.991 14.6853 155.217 14.6373 156.508 14.584C157.799 14.5307 159.068 14.4773 160.316 14.424L160.252 16.04C159.047 16.104 157.82 16.1627 156.572 16.216C155.335 16.2693 154.151 16.3173 153.02 16.36C151.9 16.4027 150.892 16.4453 149.996 16.488L149.74 14.84ZM152.476 17.752H154.348V19.848C154.348 20.072 154.396 20.2107 154.492 20.264C154.599 20.3173 154.823 20.344 155.164 20.344C155.239 20.344 155.361 20.344 155.532 20.344C155.713 20.344 155.911 20.344 156.124 20.344C156.337 20.344 156.54 20.344 156.732 20.344C156.924 20.344 157.068 20.344 157.164 20.344C157.345 20.344 157.484 20.312 157.58 20.248C157.687 20.1733 157.761 20.0293 157.804 19.816C157.847 19.592 157.879 19.2613 157.9 18.824C158.028 18.9093 158.188 18.9947 158.38 19.08C158.583 19.1653 158.785 19.2453 158.988 19.32C159.201 19.384 159.388 19.432 159.548 19.464C159.484 20.1253 159.372 20.632 159.212 20.984C159.063 21.3467 158.839 21.5973 158.54 21.736C158.241 21.8747 157.841 21.944 157.34 21.944C157.265 21.944 157.143 21.944 156.972 21.944C156.812 21.944 156.631 21.944 156.428 21.944C156.225 21.944 156.023 21.944 155.82 21.944C155.628 21.944 155.447 21.944 155.276 21.944C155.116 21.944 154.999 21.944 154.924 21.944C154.263 21.944 153.756 21.88 153.404 21.752C153.052 21.624 152.807 21.4053 152.668 21.096C152.54 20.7973 152.476 20.3867 152.476 19.864V17.752ZM153.82 12.152L155.82 12.648C155.468 13.2133 155.089 13.7787 154.684 14.344C154.289 14.8987 153.927 15.3733 153.596 15.768L152.028 15.288C152.241 15 152.46 14.6747 152.684 14.312C152.908 13.9493 153.121 13.5813 153.324 13.208C153.527 12.824 153.692 12.472 153.82 12.152ZM158.94 18.152L160.54 17.352C160.892 17.6933 161.244 18.072 161.596 18.488C161.948 18.904 162.268 19.32 162.556 19.736C162.855 20.152 163.084 20.536 163.244 20.888L161.5 21.784C161.361 21.4427 161.153 21.0587 160.876 20.632C160.609 20.216 160.305 19.7893 159.964 19.352C159.623 18.9147 159.281 18.5147 158.94 18.152ZM150.332 17.432L151.98 18.024C151.745 18.7493 151.441 19.4533 151.068 20.136C150.695 20.808 150.193 21.384 149.564 21.864L148.044 20.696C148.609 20.312 149.079 19.832 149.452 19.256C149.836 18.6693 150.129 18.0613 150.332 17.432ZM153.804 17.048L155.148 16.12C155.457 16.312 155.772 16.5307 156.092 16.776C156.423 17.0213 156.732 17.272 157.02 17.528C157.319 17.784 157.559 18.024 157.74 18.248L156.316 19.288C156.145 19.064 155.921 18.8187 155.644 18.552C155.367 18.2853 155.068 18.024 154.748 17.768C154.428 17.5013 154.113 17.2613 153.804 17.048ZM157.308 13.72L158.828 12.936C159.244 13.2453 159.671 13.5973 160.108 13.992C160.545 14.3867 160.961 14.7813 161.356 15.176C161.761 15.56 162.081 15.9173 162.316 16.248L160.668 17.128C160.455 16.8187 160.161 16.4613 159.788 16.056C159.415 15.6507 159.009 15.2453 158.572 14.84C158.145 14.424 157.724 14.0507 157.308 13.72ZM154.732 7H156.716V8.952H154.732V7ZM153.036 9.224H155.02C154.913 9.78933 154.759 10.3013 154.556 10.76C154.353 11.2187 154.06 11.6293 153.676 11.992C153.292 12.344 152.775 12.6533 152.124 12.92C151.473 13.1867 150.657 13.4053 149.676 13.576C149.601 13.3627 149.468 13.112 149.276 12.824C149.095 12.5253 148.919 12.296 148.748 12.136C149.591 12.008 150.273 11.8587 150.796 11.688C151.319 11.5173 151.729 11.3147 152.028 11.08C152.337 10.8347 152.561 10.5627 152.7 10.264C152.849 9.95467 152.961 9.608 153.036 9.224ZM156.108 9.256H158.012V10.856C158.012 11.048 158.039 11.1707 158.092 11.224C158.145 11.2667 158.273 11.288 158.476 11.288C158.508 11.288 158.572 11.288 158.668 11.288C158.775 11.288 158.881 11.288 158.988 11.288C159.105 11.288 159.217 11.288 159.324 11.288C159.431 11.288 159.511 11.288 159.564 11.288C159.671 11.288 159.751 11.2667 159.804 11.224C159.868 11.1707 159.911 11.0693 159.932 10.92C159.964 10.7707 159.991 10.5467 160.012 10.248C160.193 10.3653 160.439 10.4827 160.748 10.6C161.068 10.7173 161.351 10.7973 161.596 10.84C161.543 11.3307 161.447 11.72 161.308 12.008C161.18 12.2853 160.988 12.4827 160.732 12.6C160.487 12.7067 160.167 12.76 159.772 12.76C159.687 12.76 159.569 12.76 159.42 12.76C159.271 12.76 159.116 12.76 158.956 12.76C158.796 12.76 158.641 12.76 158.492 12.76C158.353 12.76 158.241 12.76 158.156 12.76C157.601 12.76 157.175 12.7013 156.876 12.584C156.588 12.4667 156.385 12.2747 156.268 12.008C156.161 11.7307 156.108 11.352 156.108 10.872V9.256ZM148.684 8.184H162.764V11.016H160.844V9.72H150.524V11.176H148.684V8.184Z" fill="white"/>
<path d="M138.476 9.62397C138.369 10.4346 138.231 11.2986 138.06 12.216C137.889 13.1333 137.66 14.0613 137.372 15C137.063 16.0773 136.7 17.0053 136.284 17.784C135.868 18.5626 135.409 19.1653 134.908 19.592C134.417 20.008 133.879 20.216 133.292 20.216C132.705 20.216 132.161 20.0186 131.66 19.624C131.169 19.2186 130.775 18.664 130.476 17.96C130.188 17.256 130.044 16.456 130.044 15.56C130.044 14.632 130.231 13.7573 130.604 12.936C130.977 12.1146 131.495 11.3893 132.156 10.76C132.828 10.12 133.607 9.61864 134.492 9.25598C135.388 8.89331 136.353 8.71198 137.388 8.71198C138.38 8.71198 139.271 8.87198 140.06 9.19198C140.86 9.51198 141.543 9.95464 142.108 10.52C142.673 11.0853 143.105 11.7466 143.404 12.504C143.703 13.2613 143.852 14.0773 143.852 14.952C143.852 16.072 143.623 17.0746 143.164 17.96C142.705 18.8453 142.023 19.576 141.116 20.152C140.22 20.728 139.1 21.1226 137.756 21.336L136.556 19.432C136.865 19.4 137.137 19.3626 137.372 19.32C137.607 19.2773 137.831 19.2293 138.044 19.176C138.556 19.048 139.031 18.8666 139.468 18.632C139.916 18.3866 140.305 18.088 140.636 17.736C140.967 17.3733 141.223 16.952 141.404 16.472C141.596 15.992 141.692 15.464 141.692 14.888C141.692 14.2586 141.596 13.6826 141.404 13.16C141.212 12.6373 140.929 12.184 140.556 11.8C140.183 11.4053 139.729 11.1066 139.196 10.904C138.663 10.6906 138.049 10.584 137.356 10.584C136.503 10.584 135.751 10.7386 135.1 11.048C134.449 11.3466 133.9 11.736 133.452 12.216C133.004 12.696 132.663 13.2133 132.428 13.768C132.204 14.3226 132.092 14.8506 132.092 15.352C132.092 15.8853 132.156 16.3333 132.284 16.696C132.412 17.048 132.567 17.3146 132.748 17.496C132.94 17.6666 133.143 17.752 133.356 17.752C133.58 17.752 133.799 17.64 134.012 17.416C134.236 17.1813 134.455 16.8293 134.668 16.36C134.881 15.8906 135.095 15.2986 135.308 14.584C135.553 13.816 135.761 12.9946 135.932 12.12C136.103 11.2453 136.225 10.392 136.3 9.55998L138.476 9.62397Z" fill="white"/>
<path d="M117.204 19.048C117.204 18.8453 117.204 18.5146 117.204 18.056C117.204 17.5866 117.204 17.048 117.204 16.44C117.204 15.8213 117.204 15.176 117.204 14.504C117.204 13.832 117.204 13.1866 117.204 12.568C117.204 11.9386 117.204 11.384 117.204 10.904C117.204 10.424 117.204 10.072 117.204 9.84798C117.204 9.57064 117.188 9.25065 117.156 8.88798C117.135 8.52531 117.097 8.20531 117.044 7.92798H119.54C119.508 8.20531 119.476 8.51464 119.444 8.85598C119.412 9.18664 119.396 9.51731 119.396 9.84798C119.396 10.1466 119.396 10.552 119.396 11.064C119.396 11.576 119.396 12.1466 119.396 12.776C119.396 13.3946 119.396 14.0293 119.396 14.68C119.396 15.32 119.396 15.9386 119.396 16.536C119.396 17.1333 119.396 17.656 119.396 18.104C119.396 18.5413 119.396 18.856 119.396 19.048C119.396 19.1973 119.401 19.4106 119.412 19.688C119.423 19.9546 119.444 20.232 119.476 20.52C119.508 20.808 119.529 21.064 119.54 21.288H117.044C117.087 20.968 117.124 20.5946 117.156 20.168C117.188 19.7413 117.204 19.368 117.204 19.048ZM118.916 12.072C119.449 12.2106 120.047 12.392 120.708 12.616C121.369 12.8293 122.036 13.0586 122.708 13.304C123.38 13.5493 124.009 13.7946 124.596 14.04C125.193 14.2746 125.689 14.4933 126.084 14.696L125.172 16.904C124.724 16.6693 124.228 16.4346 123.684 16.2C123.14 15.9546 122.585 15.72 122.02 15.496C121.465 15.272 120.916 15.064 120.372 14.872C119.839 14.68 119.353 14.5093 118.916 14.36V12.072Z" fill="white"/>
<path d="M102.044 8.42401C102.321 8.61601 102.647 8.85068 103.02 9.12801C103.393 9.40534 103.777 9.70934 104.172 10.04C104.577 10.36 104.956 10.6747 105.308 10.984C105.66 11.2933 105.948 11.5707 106.172 11.816L104.54 13.48C104.337 13.256 104.071 12.9893 103.74 12.68C103.409 12.3707 103.052 12.0507 102.668 11.72C102.284 11.3893 101.905 11.0747 101.532 10.776C101.159 10.4773 100.828 10.2267 100.54 10.024L102.044 8.42401ZM100.044 19.08C100.876 18.9627 101.66 18.7973 102.396 18.584C103.132 18.3707 103.815 18.1253 104.444 17.848C105.073 17.5707 105.649 17.2827 106.172 16.984C107.079 16.44 107.911 15.8213 108.668 15.128C109.425 14.4347 110.087 13.7147 110.652 12.968C111.217 12.2107 111.665 11.4747 111.996 10.76L113.244 13.016C112.839 13.7307 112.337 14.4453 111.74 15.16C111.153 15.8747 110.487 16.5573 109.74 17.208C108.993 17.848 108.188 18.424 107.324 18.936C106.78 19.2667 106.193 19.5813 105.564 19.88C104.935 20.168 104.268 20.424 103.564 20.648C102.871 20.8827 102.145 21.064 101.388 21.192L100.044 19.08Z" fill="white"/>
<path d="M85.8601 11.912C86.0414 11.944 86.2547 11.9653 86.5001 11.976C86.7454 11.9867 86.9534 11.992 87.1241 11.992H94.4521C94.6441 11.992 94.8521 11.9867 95.0761 11.976C95.3001 11.9653 95.5081 11.944 95.7001 11.912V13.928C95.4974 13.9067 95.2841 13.8907 95.0601 13.88C94.8361 13.8693 94.6334 13.864 94.4521 13.864H87.1241C86.9534 13.864 86.7454 13.8693 86.5001 13.88C86.2547 13.8907 86.0414 13.9067 85.8601 13.928V11.912ZM89.6201 20.104V13.016H91.7161V20.104H89.6201ZM85.0441 18.92C85.2467 18.9413 85.4654 18.9627 85.7001 18.984C85.9347 19.0053 86.1534 19.016 86.3561 19.016H95.2041C95.4281 19.016 95.6414 19.0053 95.8441 18.984C96.0574 18.952 96.2494 18.9307 96.4201 18.92V21.016C96.2494 20.984 96.0361 20.9627 95.7801 20.952C95.5347 20.9413 95.3427 20.936 95.2041 20.936H86.3561C86.1641 20.936 85.9507 20.9413 85.7161 20.952C85.4814 20.9627 85.2574 20.984 85.0441 21.016V18.92Z" fill="white"/>
<path d="M50.0441 13.176C50.2361 13.1866 50.4814 13.2026 50.7801 13.224C51.0787 13.2346 51.3881 13.2453 51.7081 13.256C52.0387 13.2666 52.3427 13.272 52.6201 13.272C52.8867 13.272 53.2174 13.272 53.6121 13.272C54.0067 13.272 54.4334 13.272 54.8921 13.272C55.3614 13.272 55.8414 13.272 56.3321 13.272C56.8334 13.272 57.3294 13.272 57.8201 13.272C58.3107 13.272 58.7747 13.272 59.2121 13.272C59.6494 13.272 60.0387 13.272 60.3801 13.272C60.7321 13.272 61.0094 13.272 61.2121 13.272C61.5854 13.272 61.9374 13.2613 62.2681 13.24C62.5987 13.208 62.8707 13.1866 63.0841 13.176V15.688C62.9027 15.6773 62.6307 15.6613 62.2681 15.64C61.9054 15.6186 61.5534 15.608 61.2121 15.608C61.0094 15.608 60.7321 15.608 60.3801 15.608C60.0281 15.608 59.6334 15.608 59.1961 15.608C58.7587 15.608 58.2947 15.608 57.8041 15.608C57.3241 15.608 56.8334 15.608 56.3321 15.608C55.8307 15.608 55.3454 15.608 54.8761 15.608C54.4174 15.608 53.9907 15.608 53.5961 15.608C53.2121 15.608 52.8867 15.608 52.6201 15.608C52.1614 15.608 51.6921 15.6186 51.2121 15.64C50.7321 15.6506 50.3427 15.6666 50.0441 15.688V13.176Z" fill="white"/>
<path d="M33.268 9.41595C33.4814 9.43729 33.732 9.45862 34.02 9.47995C34.308 9.50129 34.564 9.51195 34.788 9.51195H43.492C43.7374 9.51195 43.9934 9.50129 44.26 9.47995C44.5267 9.45862 44.772 9.43729 44.996 9.41595V11.608C44.7614 11.5866 44.5107 11.5706 44.244 11.56C43.9774 11.5493 43.7267 11.544 43.492 11.544H34.788C34.5747 11.544 34.3187 11.5493 34.02 11.56C33.7214 11.5706 33.4707 11.5866 33.268 11.608V9.41595ZM37.876 19.256V10.648H40.116V19.256H37.876ZM32.228 17.944C32.484 17.9866 32.7507 18.0186 33.028 18.04C33.3054 18.0613 33.5667 18.072 33.812 18.072H44.356C44.644 18.072 44.916 18.0613 45.172 18.04C45.428 18.008 45.6574 17.976 45.86 17.944V20.264C45.6254 20.232 45.364 20.2106 45.076 20.2C44.788 20.1893 44.548 20.184 44.356 20.184H33.812C33.5774 20.184 33.3214 20.1893 33.044 20.2C32.7667 20.2106 32.4947 20.232 32.228 20.264V17.944Z" fill="white"/>
<path d="M80.6124 13.3281C79.8658 14.4375 78.9425 15.4825 77.8439 16.4639C76.7559 17.4452 75.5562 18.3149 74.2443 19.0723C73.7004 19.3815 73.1028 19.6689 72.4523 19.9355C71.8123 20.2022 71.1773 20.432 70.548 20.624C69.9296 20.8266 69.3804 20.9703 68.9005 21.0557L67.7003 18.9443C68.3083 18.8377 68.9166 18.7089 69.5245 18.5596C70.143 18.3996 70.7566 18.2024 71.3644 17.9678C71.9829 17.7331 72.5805 17.4616 73.1564 17.1523C74.063 16.6404 74.9051 16.0638 75.6837 15.4238C76.473 14.7838 77.1774 14.1013 77.796 13.376C78.4253 12.6507 78.9534 11.9096 79.38 11.1523L80.6124 13.3281ZM68.212 11.2324C68.4787 11.3817 68.7779 11.5571 69.1085 11.7598C69.4498 11.9517 69.7907 12.1549 70.132 12.3682C70.4732 12.5814 70.7933 12.7836 71.0919 12.9756C71.4013 13.1676 71.6578 13.3389 71.8605 13.4883L70.6925 15.2803C70.4578 15.1203 70.1904 14.944 69.8917 14.752C69.5931 14.5493 69.273 14.3412 68.9318 14.1279C68.6013 13.9041 68.271 13.6958 67.9406 13.5039C67.6206 13.3119 67.3214 13.1465 67.0441 13.0078L68.212 11.2324ZM71.5558 8.1123C71.8864 8.31494 72.2223 8.52304 72.5636 8.73633C72.9156 8.94966 73.2415 9.15768 73.5402 9.36035C73.8494 9.55229 74.1111 9.72277 74.3243 9.87207L73.1241 11.6484C72.9108 11.4884 72.6493 11.3062 72.34 11.1035C72.0308 10.9009 71.7105 10.6937 71.38 10.4805C71.0493 10.2671 70.7185 10.0641 70.3878 9.87207C70.0679 9.66944 69.7746 9.49306 69.5079 9.34375L70.6759 7.58398C70.9319 7.73331 71.2251 7.90965 71.5558 8.1123ZM78.0441 10.584H76.0441V7.58398H78.0441V10.584ZM81.0441 10.584H79.0441V7.58398H81.0441V10.584Z" fill="white"/>
<defs>
<clipPath id="clip0_712_3618">
<rect width="24" height="28" fill="white"/>
</clipPath>
</defs>
</svg>
