<svg width="40" height="46" viewBox="0 0 40 46" fill="none" xmlns="http://www.w3.org/2000/svg">
<g clip-path="url(#clip0_590_1638)">
<path d="M36.8222 7.91896L5.19988 0.124315C2.55679 -0.525939 0 1.45675 0 4.15858V41.8431C0 44.4642 2.41465 46.4301 5.00529 45.9193L36.6276 39.6839C38.5888 39.2975 40 37.5904 40 35.6077V11.9515C40 10.0428 38.6886 8.37935 36.8205 7.91896H36.8222Z" fill="#221E1F"/>
<path d="M0 41.8414V24.8693L9.47925 15.423L30.1908 35.2045L22.9604 42.3757L5.00529 45.916C2.41465 46.4268 0 44.4609 0 41.8397L0 41.8414Z" fill="#0D3076"/>
<path d="M11.7602 14.4316L28.3329 10.3469C29.717 10.0058 31.0572 11.0442 31.0572 12.4606V32.2102C31.0572 33.583 29.7915 34.6146 28.4344 34.3458L11.8618 31.0777C10.8347 30.8744 10.0935 29.9805 10.0935 28.9421V16.5453C10.0935 15.5439 10.7805 14.6735 11.7602 14.4316Z" fill="white"/>
</g>
<defs>
<clipPath id="clip0_590_1638">
<rect width="40" height="46" fill="white"/>
</clipPath>
</defs>
</svg>
